<svg xmlns="http://www.w3.org/2000/svg" viewBox="0 0 512 512"><defs><style>.cls-1{fill:#a99bcb;}.cls-2{fill:#fac013;}.cls-3{fill:#fed402;}.cls-4{fill:#ffe600;}.cls-5{fill:#049146;}.cls-6{fill:#fff;opacity:0.3;}.cls-7{fill:#010101;}</style></defs><g id="BULINE"><circle class="cls-1" cx="256" cy="256" r="256"/></g><g id="Fruits"><path class="cls-2" d="M452.1,194.65c-48.78,58.18-133.65,93.37-215.39,90.2-75-2.91-146.56-36.43-188.38-60.18-13.69-7.78-25.7,5.87-21.47,21C42.54,301.83,144.31,391.24,248.39,392c145,1.08,204-76.45,230.24-183.57Z"/><path class="cls-3" d="M448.05,207c-38.13,65.65-115.76,114.81-196.84,125.62-74.38,9.93-150.63-10.88-195.89-27.16-14.81-5.32-24.32,10.18-17.56,24.4,25,52.63,140.56,123.36,243.24,106.37,143.1-23.68,188-110.14,195.55-220.16Z"/><path class="cls-4" d="M446.75,193.53C430.31,267.66,371.24,338,297.26,372.92c-67.87,32-146.84,35.3-194.9,33.51C86.62,405.85,82.26,423.5,93,435c39.8,42.57,171.34,74.94,264,27.62,129.19-65.95,145.76-161.95,119.6-269.09Z"/><rect class="cls-5" x="446.75" y="133.74" width="29.9" height="59.8"/><path d="M409.08,397.66a5,5,0,0,0-7.05-.52,270.49,270.49,0,0,1-31,22.91,5,5,0,0,0,5.37,8.43q6.9-4.39,13.25-9l.37-.27.08-.05.37-.27.07-.05h0l.07-.06.3-.21.07-.05h0l.43-.32h0l.07-.05.22-.16h0l.06,0h0l.07-.05h0l.06,0h0l.07-.05.14-.11h0l.06,0h0l.06,0a0,0,0,0,1,0,0l.07,0,.22-.16s0,0,.07-.05h0l.06,0v0l.07,0h0a.18.18,0,0,0,.07,0l.15-.1h0l.06-.05h0l.06,0h0l.06-.05h0l.21-.16h0l0,0h0l.05,0,0,0,.06,0h0l.06,0h0l.14-.1,0,0,0,0,0,0,.05,0h0l.05,0,0,0,.05,0,0,0,.07-.05h0l.06,0,0,0,0,0,0,0,0,0,0,0,0,0,0,0,0,0,0,0,.06,0,0,0,.05,0,0,0,0,0,0,0,0,0,0,0,0,0,0,0,0,0,0,0,0,0,.06-.05,0,0,0,0,0,0,0,0,0,0,0,0,0,0,0,0,0,0,.15-.11h0l.05,0h0l0,0h0l0,0,0,0,0,0,0,0,.15-.12h0l.05,0,0,0,0,0,0,0,.05,0,0,0,0,0,0,0,.23-.17h0l.05,0h0l.05,0h0l.3-.23.06,0h0l.05,0h0l.05,0h0l.24-.19.06,0h0l.06,0q5.73-4.41,11-9A5,5,0,0,0,409.08,397.66Zm-47.89,34.27a5,5,0,0,0-4.37-2.56,5,5,0,0,0-2.43.63l-.43.24A5,5,0,0,0,358.8,439l.16-.09.3-.17h0A5,5,0,0,0,361.19,431.93Zm-17.71,9.62a5,5,0,0,0-4.53-2.87,5.08,5.08,0,0,0-2.13.48A196.09,196.09,0,0,1,301,451.82a5,5,0,1,0,2.42,9.7,212.59,212.59,0,0,0,27.25-8.78h0l.29-.12h0l.19-.08h0a.3.3,0,0,1,.08,0h0l.18-.08h0l.08,0h0l.1,0h0l.09,0h0l.08,0h0l.09,0h0l.07,0h0l.07,0h0l.08,0h0l.06,0h0l.08,0,0,0,0,0,0,0,.05,0h0l.08,0h0l0,0,.05,0,0,0,.07,0,0,0,0,0h0l.05,0h0l.11,0s0,0,0,0l.06,0h0l.2-.08a0,0,0,0,0,0,0l.07,0h0l.21-.08h0c2.43-1,4.82-2.08,7.2-3.2A5,5,0,0,0,343.48,441.55Z"/><path class="cls-6" d="M139.13,442.61a9.92,9.92,0,0,1,0-19.84c3.29,0,6.57,0,9.85-.1,27.82-.46,54.95-1.31,80.93-6.53A359.53,359.53,0,0,0,305.3,392.4c20.14-9,41-22.13,63.73-40.17a231.81,231.81,0,0,0,48.74-52.35,259.09,259.09,0,0,0,30.76-62.36,9.92,9.92,0,1,1,18.8,6.35A279.09,279.09,0,0,1,434.21,311a255,255,0,0,1-52.85,56.77c-24.06,19.1-46.3,33.08-68,42.75a379,379,0,0,1-79.6,25.07c-27.62,5.56-55.74,6.44-84.51,6.92-3.37.05-6.73.09-10.1.1Z"/><path class="cls-6" d="M209.59,375.84c-40.55,0-83-7.11-125.82-21.27A9.92,9.92,0,1,1,90,335.73c49.52,16.36,124.62,31.23,201.15,9.11a9.92,9.92,0,1,1,5.51,19.06A312.92,312.92,0,0,1,209.59,375.84Z"/><path class="cls-6" d="M214.16,322.57l-.77,0c-43.11-3.34-87-15.68-138.23-38.85a9.92,9.92,0,0,1,8.19-18.08c49,22.19,90.83,34,131.57,37.14a9.93,9.93,0,0,1-.76,19.82Z"/></g><g id="Black_outlines_-_to_remove" data-name="Black outlines - to remove"><path class="cls-7" d="M476.65,193.53V133.74h-29.9v59.79q-1.1,5-2.46,9.9c-47.5,50.59-123,81.62-197.34,81.62q-5.13,0-10.24-.2c-75-2.91-146.56-36.43-188.38-60.18a15.94,15.94,0,0,0-7.9-2.26c-9.95,0-16.95,11.16-13.57,23.29,5.41,19.35,21,42.66,43.49,64.93q-8-2.62-15-5.17a17.2,17.2,0,0,0-5.8-1.07c-11.33,0-17.59,13.21-11.76,25.47,12.08,25.4,45.23,55,87.85,76.95h-2.35c-7.46,0-14.46-.15-20.9-.39h-.76c-15.11,0-19.16,17.27-8.58,28.58,25.85,27.65,90.41,51,157.89,51,36.41,0,73.66-6.8,106.14-23.38C486.24,396.67,502.81,300.67,476.65,193.53Zm-19.9-49.79h9.9v39.79h-9.9ZM36.49,243c-1.12-4-.14-7.29,1.15-9a3.52,3.52,0,0,1,2.79-1.62,6.3,6.3,0,0,1,3,1c46.54,26.44,117.8,58.57,192.93,61.48,3.52.14,7.09.21,10.63.21,70.39,0,140-26.11,189.08-69.66-41,56.33-111.51,97.46-184.82,107.23A303.44,303.44,0,0,1,211,335.2c-43.06,0-84.75-8.26-118.58-17.82C63.85,292.89,42.65,265.06,36.49,243Zm85.06,150.27c-35.71-19.9-64.36-45.85-74.76-67.73-1.95-4.09-1.3-7.66-.16-9.47a3.15,3.15,0,0,1,2.89-1.7,7.29,7.29,0,0,1,2.42.48c10.49,3.77,22.49,7.74,35.66,11.52,7.79,2.24,16,4.41,24.54,6.43,29.92,7.1,63.94,12.38,98.9,12.38a314.71,314.71,0,0,0,41.49-2.66c64-8.55,125.51-40,168.73-84.29-27.66,48.37-72.17,90.23-124,114.67q-9.31,4.4-18.86,8.07a330.53,330.53,0,0,1-33.59,11c-33.72,9.09-67.57,13-97,14.33C138.92,402.42,130.14,398.08,121.55,393.29ZM465.74,340c-8.28,22.18-21.4,42.65-39,60.84-19,19.62-44,37.4-74.22,52.85C324,468.29,288.81,476,250.91,476a295.82,295.82,0,0,1-91.39-14.62c-26.4-8.82-47.42-20.61-59.2-33.21-3.28-3.5-3.74-7.47-2.79-9.68.27-.62.91-2.07,4.07-2.07H102c7,.26,14.2.39,21.27.39s14.72-.13,22.71-.46c7.64-.31,15.64-.8,23.91-1.5,34.42-3,73.45-9.78,110.69-24,7.06-2.69,14.06-5.65,20.95-8.9q5.82-2.75,11.51-5.77c61.22-32.46,110.8-88,134-149q3.51-9.19,6.18-18.54a.48.48,0,0,0,.05-.17q.72-2.46,1.36-4.94h14.1Q470,209,471,214.3q1.36,6.9,2.42,13.58.69,4.4,1.25,8.7C479.85,276.06,476.87,310.15,465.74,340Z"/></g></svg>