<?xml version="1.0" encoding="UTF-8"?>
<!DOCTYPE svg PUBLIC "-//W3C//DTD SVG 1.1//EN" "http://www.w3.org/Graphics/SVG/1.1/DTD/svg11.dtd">
<!-- Creator: CorelDRAW -->
<svg xmlns="http://www.w3.org/2000/svg" xml:space="preserve" width="2048px" height="2048px" style="shape-rendering:geometricPrecision; text-rendering:geometricPrecision; image-rendering:optimizeQuality; fill-rule:evenodd; clip-rule:evenodd"
viewBox="0 0 2048 2048"
 xmlns:xlink="http://www.w3.org/1999/xlink">
 <defs>
  <style type="text/css">
   <![CDATA[
    .fil0 {fill:#EF5350}
    .fil1 {fill:#FFFFFE}
   ]]>
  </style>
 </defs>
 <g id="Layer_x0020_1">
  <metadata id="CorelCorpID_0Corel-Layer"/>
  <circle class="fil0" cx="1024" cy="1024" r="1024"/>
  <g id="_374908056">
   <g>
    <path id="_374909904" class="fil1" d="M794.24 750.399c180.26,91.2721 392.24,90.1985 593.256,89.1757 25.5803,-0.12874 51.0945,-0.259843 62.9575,-0.259843 6.41457,0 11.6162,5.20158 11.6162,11.6162 0,8.36457 3.43229,15.9803 8.95867,21.5079 5.52756,5.52638 13.1433,8.95867 21.5079,8.95867 6.41457,0 11.6162,5.20158 11.6162,11.6162l0 229.936c0,6.41457 -5.20158,11.615 -11.6162,11.615 -8.36457,0 -15.9803,3.43229 -21.5079,8.95985 -5.52638,5.52638 -8.95867,13.1421 -8.95867,21.5079 0,6.41457 -5.20158,11.615 -11.6162,11.615l-0.623623 -0.0165354 -4.70788 0.141732c-220.572,6.63544 -459.286,13.8165 -662.154,-92.0233l-0.022441 0.0425197c-4.0004,-2.08819 -6.27874,-6.17953 -6.24331,-10.4032 -0.0295276,-8.32442 -3.45473,-15.8988 -8.95867,-21.4028 -5.52756,-5.52756 -13.1433,-8.95985 -21.5079,-8.95985 -6.41457,0 -11.6162,-5.2004 -11.6162,-11.615l0 -229.936c0,-6.41457 5.20158,-11.6162 11.6162,-11.6162 8.36457,0 15.9803,-3.43229 21.5079,-8.95867 5.52638,-5.52756 8.95867,-13.1433 8.95867,-21.5079 0,-6.41457 5.20158,-11.6162 11.6162,-11.6162 2.1626,0 4.18701,0.592914 5.92087,1.62284zm-139.467 -80.4426l0 439.601 0 0.283465c0.00708662,7.55316 3.69095,14.9575 10.4752,19.415l0.0543308 -0.0850394c221.808,145.742 519.389,142.893 791.244,140.29 30.5433,-0.290551 60.6768,-0.581103 104.223,-0.581103 12.8291,0 23.2311,-10.4008 23.2311,-23.2311l0 -475.334c0,-12.8303 -10.402,-23.2323 -23.2311,-23.2323 -24.861,0 -64.4906,0.380315 -104.583,0.764174 -247.114,2.36457 -515.999,4.94055 -721.45,-106.423 -7.83071,-4.2437 -15.2504,-8.45434 -22.2331,-12.6248 -7.05001,-4.20827 -13.735,-8.36694 -20.0362,-12.4725 -3.96851,-3.16181 -8.9941,-5.05158 -14.4626,-5.05158 -12.8291,0 -23.2311,10.402 -23.2311,23.2311l0 35.4508z"/>
    <path id="_374909808" class="fil1" d="M789.585 874.413l167.823 46.3689 -6.17008 22.3229 -167.823 -46.3689 6.17008 -22.3229zm-31.7339 -61.5957l0 209.25c10.1362,2.25355 19.2142,7.38898 26.3173,14.4933 8.09646,8.09646 13.6382,18.7571 15.2681,30.626 194.941,99.2387 426.242,93.0213 640.597,86.5784 2.21339,-10.2768 7.38426,-19.4811 14.5701,-26.6658 7.10316,-7.10434 16.1811,-12.2398 26.3173,-14.4933l0 -209.25c-10.1362,-2.25473 -19.2142,-7.38898 -26.3173,-14.4933 -7.10316,-7.10316 -12.2386,-16.1788 -14.4933,-26.3138 -23.4567,0.0177165 -37.9252,0.0921261 -52.5237,0.165354 -198.914,1.01339 -408.415,2.06221 -590.498,-85.0985 -2.68465,7.87678 -7.15394,14.9433 -12.9201,20.7083 -7.10316,7.10434 -16.1811,12.2386 -26.3173,14.4933zm31.7339 145.657l167.823 46.3689 -6.17008 22.3229 -167.823 -46.3689 6.17008 -22.3229zm238.376 -53.7437c21.952,-20.7213 51.6863,-33.2091 84.6886,-33.2103l0 -0.046063c2.11181,0 4.57205,0.0791339 7.37127,0.236221 35.6729,2.00669 67.9288,18.2398 91.2379,42.8599 23.3551,24.6685 37.8012,57.7559 37.8012,93.4099 0,2.13662 -0.0791339,4.58977 -0.233858,7.34056 -1.85079,32.9103 -16.0299,61.8733 -38.0138,82.6264 -21.9532,20.7189 -51.6874,33.2091 -84.6898,33.2091l0 0.046063c-2.11181,0 -4.57205,-0.0791339 -7.37127,-0.236221 -35.6315,-2.00315 -67.8804,-18.2445 -91.2142,-42.8811l-0.022441 0.022441 -0.0200788 -0.0212599 -0.0212599 0.0212599c-0.211417,-0.223229 -0.411024,-0.452363 -0.6,-0.686221 -22.976,-24.5941 -37.1599,-57.4004 -37.1599,-92.7249 0,-2.13662 0.0791339,-4.58977 0.233858,-7.34056 1.85079,-32.9091 16.0276,-61.8733 38.0138,-82.6253zm254.271 133.665l167.822 0 0 23.2311 -167.822 0 0 -23.2311zm0 -84.0615l167.822 0 0 23.2311 -167.822 0 0 -23.2311z"/>
    <path id="_374909136" class="fil1" d="M1129.65 924.793c14.4756,1.70669 25.5154,5.76497 33.15,12.1441 7.66772,6.34725 12.6579,14.7579 14.9717,25.2331l-36.0248 3.69095c-1.78465,-4.69489 -3.43701,-7.95945 -4.89095,-9.82678 -1.45512,-1.86732 -3.83386,-3.78544 -7.20591,-5.79213l0 27.9933c19.6323,6.32717 32.7201,12.5811 39.3296,18.7713 8.69292,8.28898 13.0559,18.45 13.0559,30.4796 0,7.0063 -1.55433,13.3984 -4.6937,19.1032 -3.13937,5.67402 -7.13859,10.3736 -11.9976,14.0327 -4.89095,3.65906 -10.0795,6.20906 -15.5658,7.68544 -5.48741,1.4752 -12.1961,2.15551 -20.1284,2.00669l0 18.3095 -14.1461 -0.794883 0 -18.3095c-9.48426,-1.36063 -17.1851,-3.31418 -23.0681,-5.89252 -5.91615,-2.54764 -11.0067,-5.90788 -15.3024,-10.115 -4.29685,-4.1752 -7.60158,-8.59135 -9.94843,-13.285 -2.31378,-4.69134 -4.06536,-10.2756 -5.22166,-16.7858l39.1311 -2.35866c1.15748,6.44292 2.71063,11.1567 4.69252,14.1118 1.95,2.95158 5.22284,5.64804 9.71694,8.08229l0 -34.174c-13.0205,-4.33465 -22.2756,-7.99489 -27.7288,-10.9465 -5.45315,-2.9504 -10.1787,-7.44804 -14.178,-13.5225 -4.0004,-6.0756 -6.01536,-13.2933 -6.01536,-21.6898 0,-11.5004 4.03229,-20.8583 12.0626,-28.141 8.0315,-7.24843 19.9961,-10.8721 35.8595,-10.8059l0 -9.58465 14.1461 0.796064 0 9.58465zm-85.8072 -3.18544c-17.7815,16.7835 -29.25,40.2733 -30.7536,67.0193 -0.0933072,1.67953 -0.142913,3.7004 -0.142913,6.06969 0,29.2878 11.7768,56.4957 30.8516,76.9005l0.54567 0.539764 -0.0413386 0.0448819c19.3902,20.4815 46.1646,33.9827 75.7205,35.6445 1.72087,0.0956694 3.75709,0.145276 6.10158,0.145276l0 0.0448819c26.8394,0 50.9965,-10.1339 68.8099,-26.9469 17.7803,-16.7823 29.25,-40.2733 30.7536,-67.0193 0.0933072,-1.67835 0.142913,-3.7004 0.142913,-6.06969 0,-29.5453 -11.9835,-56.9764 -31.3571,-77.439 -19.4173,-20.5099 -46.1941,-34.0299 -75.7205,-35.6906 -1.72087,-0.0956694 -3.75709,-0.145276 -6.10158,-0.145276l0 -0.0448819c-26.8394,0 -50.9965,10.135 -68.8087,26.9469z"/>
    <path id="_374909352" class="fil1" d="M1104.46 960.459c0,2.84292 0.826772,5.36693 2.47914,7.54253 1.65236,2.20866 4.4941,4.12087 8.55946,5.76969l0 -24.7878c-4.13032,1.12205 -7.0063,2.64567 -8.59253,4.54016 -1.61929,1.9252 -2.44606,4.22481 -2.44606,6.93544z"/>
    <path id="_374908896" class="fil1" d="M1129.65 1014.06l0 31.0004c5.48622,-0.914174 9.51851,-2.70355 12.0638,-5.3693 2.54528,-2.66575 3.83386,-5.76615 3.83386,-9.23623 0,-3.04134 -1.09134,-5.87953 -3.27166,-8.57953 -2.14961,-2.66575 -6.34607,-5.24882 -12.626,-7.81536z"/>
   </g>
   <g>
    <path id="_374908920" class="fil1" d="M636.472 1109.84l0 -195.494 0 -46.4622 -69.6922 0c-12.8303,0 -23.2311,10.402 -23.2311,23.2311l0 441.382c0,12.8303 10.4008,23.2311 23.2311,23.2311l929.226 0c12.8291,0 23.2311,-10.4008 23.2311,-23.2311l0 -40.2532c-15.4866,0.0850394 -30.9744,0.204331 -46.4622,0.343701 -3.69213,0.0330709 -7.38426,0.0673229 -11.0776,0.102756 -114.137,1.09134 -236.061,2.55827 -356.262,-8.08465l-413.823 0c-6.41457,0 -11.615,-5.20158 -11.615,-11.6162 0,-8.6693 -3.5563,-16.5626 -9.28465,-22.2898 -5.72717,-5.72835 -13.6205,-9.28465 -22.291,-9.28465 -6.41339,0 -11.615,-5.20158 -11.615,-11.6162l0 -114.384c-0.0011811,-0.00354331 -0.0011811,-0.00826772 -0.00236221,-0.011811 -0.219685,-1.83307 -0.33189,-3.69095 -0.33189,-5.563z"/>
    <path id="_374909160" class="fil1" d="M943.287 1261.37c-94.343,-19.611 -184.727,-50.8571 -266.119,-100.341l-0.27874 0.426378 -16.852 -11.0717 0 69.0402c10.4421,2.27244 19.7941,7.53898 27.1004,14.8453 7.30512,7.3063 12.5728,16.6583 14.8453,27.1004l241.304 0z"/>
   </g>
   <path id="_374908272" class="fil1" d="M520.319 948.882l-33.0874 0c-12.8303,0 -23.2323,10.4008 -23.2323,23.2311l0 441.382c0,12.8291 10.402,23.2311 23.2323,23.2311l929.225 0c12.8303,0 23.2311,-10.402 23.2311,-23.2311l0 -34.5355 -872.907 0c-25.6512,0 -46.4611,-20.8099 -46.4611,-46.4622l0 -383.615z"/>
  </g>
 </g>
</svg>
