<svg id="_50" data-name="50" xmlns="http://www.w3.org/2000/svg" viewBox="0 0 512 512"><defs><style>.cls-1{fill:#ffbf4d;}.cls-2{fill:#fbdb58;}.cls-3{fill:#f946a0;}.cls-4{fill:#d7156f;}.cls-5{fill:#ea1b8c;}.cls-6{fill:#ff76c1;}</style></defs><title>50-heart-icons</title><circle class="cls-1" cx="256" cy="256" r="256"/><circle class="cls-2" cx="256" cy="256" r="205.7"/><path class="cls-3" d="M108.86,197a10,10,0,0,1-10-10v-9.43a48,48,0,0,1,47.92-47.92h40.94a10,10,0,1,1,0,20H146.78a28,28,0,0,0-27.92,27.92V187A10,10,0,0,1,108.86,197Z"/><path class="cls-3" d="M390.83,359H349.89a10,10,0,0,1,0-20h40.94A28,28,0,0,0,418.75,311v-9.43a10,10,0,0,1,20,0V311A48,48,0,0,1,390.83,359Z"/><path class="cls-4" d="M416.59,205.31l-84.36,84.36a15.78,15.78,0,0,1-22.33,0l-70-70-14.35-14.36a57.37,57.37,0,0,1,0-81.17,58.18,58.18,0,0,1,8.8-7.23,57.43,57.43,0,0,1,72.37,7.23l14.35,14.35,14.35-14.35a57.4,57.4,0,1,1,81.18,81.17Z"/><path class="cls-5" d="M416.59,205.31l-68.34,68.34a15.79,15.79,0,0,1-22.34,0l-70-70-14.35-14.36a57.41,57.41,0,0,1-7.22-72.38,57.43,57.43,0,0,1,72.37,7.23l14.35,14.35,14.35-14.35a57.4,57.4,0,1,1,81.18,81.17Z"/><ellipse class="cls-3" cx="394.14" cy="134.33" rx="14.56" ry="24.07" transform="translate(51.49 370.93) rotate(-53.45)"/><ellipse class="cls-3" cx="417.06" cy="169.49" rx="9.2" ry="15.21" transform="translate(-20.37 63.09) rotate(-8.45)"/><path class="cls-5" d="M339.29,331.06,231.06,439.28a20.24,20.24,0,0,1-28.65,0l-89.82-89.81L94.18,331.06a73.65,73.65,0,0,1,0-104.15,74.57,74.57,0,0,1,11.29-9.26,73.68,73.68,0,0,1,92.85,9.26l18.41,18.42,18.41-18.42A73.65,73.65,0,1,1,339.29,331.06Z"/><path class="cls-3" d="M339.29,331.06l-87.68,87.67a20.24,20.24,0,0,1-28.65,0l-89.82-89.81-18.41-18.41a73.68,73.68,0,0,1-9.26-92.86,73.68,73.68,0,0,1,92.85,9.26l18.41,18.42,18.41-18.42A73.65,73.65,0,1,1,339.29,331.06Z"/><ellipse class="cls-6" cx="310.49" cy="239.99" rx="18.68" ry="30.89" transform="translate(-67.22 346.47) rotate(-53.45)"/><ellipse class="cls-6" cx="339.89" cy="285.1" rx="11.8" ry="19.51" transform="translate(-38.19 53.01) rotate(-8.45)"/></svg>