<svg xmlns="http://www.w3.org/2000/svg" viewBox="0 0 512 512"><defs><style>.cls-1{fill:#f6bb37;}.cls-2{fill:#e24445;}.cls-3{fill:#fff;opacity:0.3;}.cls-4{fill:#049146;}.cls-5{fill:#010101;}</style></defs><g id="BULINE"><circle class="cls-1" cx="256" cy="256" r="256"/></g><g id="Fruits"><path class="cls-2" d="M486,317.11a168.17,168.17,0,0,1-230,156.3,168.08,168.08,0,1,1,0-312.59A168.17,168.17,0,0,1,486,317.11Z"/><path d="M330.58,76A5,5,0,0,0,324,73.4c-14.72,6.43-29,17.29-43.67,33.19l-.08.08c-29.14,33-42.37,78.43-36,122.58a64.5,64.5,0,0,1-35-18.1,5,5,0,0,0-7.08,7.07,75,75,0,0,0,106.07,0,5,5,0,0,0-7.07-7.07,64.57,64.57,0,0,1-46,19l-.72,0c-6.75-42,5.54-85.42,33.24-116.84C301.42,98.49,314.6,88.42,328,82.56A5,5,0,0,0,330.58,76Z"/><path class="cls-3" d="M62.82,335.92A9.92,9.92,0,0,1,52.9,326,148.59,148.59,0,0,1,99.14,217.73a9.92,9.92,0,1,1,13.72,14.33A128.93,128.93,0,0,0,72.74,326,9.92,9.92,0,0,1,62.82,335.92Z"/><path d="M442.4,374.84a5,5,0,0,0-6.68,2.31,140.38,140.38,0,0,1-20.59,31,5,5,0,1,0,7.52,6.58,149.67,149.67,0,0,0,11.81-15.38,2.14,2.14,0,0,1,.13-.19l.08-.13.09-.13,0-.06h0l.09-.13,0-.06.09-.13h0l.08-.12h0l.12-.19,0-.06a.57.57,0,0,1,.08-.13h0a.83.83,0,0,0,.08-.12h0l0-.06.08-.13h0l.08-.12,0-.06h0l.08-.12s0,0,0,0l0,0h0l0-.06,0-.06s0,0,0,0l0-.06,0-.07,0-.06h0a.83.83,0,0,0,.08-.12h0l.08-.12h0l0-.06h0a.83.83,0,0,0,.08-.12h0l0-.06a.43.43,0,0,0,0-.07l0-.05v0l.07-.12h0l0-.05h0l.08-.13h0l0,0h0a.21.21,0,0,0,0-.06h0l0-.05v0l.08-.12h0l0-.05h0a.21.21,0,0,0,0-.06h0l0-.06h0l0-.06h0a.21.21,0,0,1,0-.06h0l0-.05v0l0-.06,0-.06h0l0-.05h0l0-.06h0l0-.06a0,0,0,0,0,0,0l.07-.12h0l0,0s0,0,0,0l0-.06,0-.06h0a.21.21,0,0,0,0-.06l0-.06v0l0-.05h0l.07-.12h0l0-.06h0l0-.06h0l0-.05h0l.08-.13h0l0-.06.08-.13h0l0-.05h0l0-.06h0a.21.21,0,0,0,0-.06h0a.83.83,0,0,0,.08-.12h0l0-.06,0-.07,0-.06h0l.07-.13s0,0,0,0l0-.06h0l.07-.13h0s0-.08.07-.13h0l0-.06h0s0-.08.07-.13h0l0-.05h0s.05-.08.07-.13h0s.05-.08.07-.13h0l0-.06h0s0-.08.07-.13h0a2,2,0,0,1,.11-.2l.08-.13h0l0-.06.08-.14.12-.2c.06-.12.13-.23.19-.34l.2-.34.08-.13h0l0-.06s.05-.09.07-.14l.12-.2h0c1.57-2.76,3.06-5.59,4.46-8.46A5,5,0,0,0,442.4,374.84Zm-33.41,47a5,5,0,0,0-7.06-.48l-.35.31a5,5,0,0,0-.48,7.06,5,5,0,0,0,7,.48l.08-.06.27-.24,0,0A5,5,0,0,0,409,421.84Zm-15.34,12.54a5,5,0,0,0-6.93-1.42,139.06,139.06,0,0,1-33.51,16.16,5,5,0,0,0,1.55,9.76,4.87,4.87,0,0,0,1.54-.25c1.39-.45,2.77-.92,4.15-1.42l.22-.08.21-.07h0l.37-.13h0l.15-.06h0l0,0h0l.15-.06h0l.16-.06.05,0h0l.15-.06h0l0,0h0l.14-.06h0l0,0h0l.09,0h0l0,0h0l0,0h0l.08,0h0l0,0h0l.14-.05h0l0,0h0l.09,0h0l0,0h.08l.08,0h.08l.06,0,0,0h.1s0,0,0,0l.07,0h.09l0,0h0l.06,0h0l0,0h.07l.05,0h0l0,0h.07l0,0,.05,0h.1l.05,0h0l.05,0h0l0,0h0l.06,0h0l.05,0h0l.05,0h0l.06,0h0l.05,0h0l.06,0h0l.06,0h0l.05,0h0l.07,0h0l.05,0h0l0,0h0l.06,0h0l0,0h0l.06,0h0l.06,0h0l.05,0h0l.06,0h0l0,0h0l0,0s0,0,0,0l.07,0h0l0,0h0l.06,0h0l.06,0h0l.05,0h0l.06,0h0l.06,0h0l.06,0,.07,0h0l.06,0h0l.14-.06h0l.06,0h0l.13-.06h0l.06,0,.07,0h0l.06,0h0l.21-.09h0l.14-.06.43-.18.15-.06h0l.57-.24.58-.25a147.82,147.82,0,0,0,14-7l.06,0h0l.13-.07.2-.12h0l.06,0,.07,0h0l.06,0h0l.13-.08h0l.06,0,.07,0,.06,0h0l.13-.07.06,0h0l.13-.08h0a.1.1,0,0,0,.05,0h0l.06,0h0l.06,0h0l.05,0h0l.06,0h0l0,0h0l.12-.07h0l.05,0h0l.06,0h0l.05,0h0l.05,0h0l.06,0h0l0,0h0l.12-.07h0l0,0h0l.06,0h0l0,0h0l0,0,0,0,.06,0h0l0,0,0,0,0,0h0l.05,0h0l0,0h0l.06,0h0l0,0s0,0,0,0l0,0h0l.06,0h0l0,0s0,0,0,0l0,0,0,0,0,0,0,0,0,0h0l0,0,0,0,0,0,0,0h0l.11-.07,0,0,0,0,0,0,0,0,0,0,0,0,0,0,0,0h0l.06,0h0l0,0,0,0,0,0h0l.05,0h0l0,0h0l.13-.08h0l0,0,.1-.06,0,0h0l.14-.09.05,0,.14-.09c1.32-.81,2.61-1.64,3.9-2.48A5,5,0,0,0,393.65,434.38Z"/></g><g id="Black_outlines_-_to_remove" data-name="Black outlines - to remove"><path d="M317.92,159a158.08,158.08,0,1,1-58.23,305.07L256,462.65l-3.69,1.46a158.07,158.07,0,1,1,0-294l3.69,1.47,3.69-1.47A157.19,157.19,0,0,1,317.92,159m0-10A167.56,167.56,0,0,0,256,160.82a168.08,168.08,0,1,0,0,312.59A168.09,168.09,0,1,0,317.92,149Z"/></g><g id="Leaves_on_top" data-name="Leaves on top"><path class="cls-4" d="M201.21,110c42.48,42.48,33.1,94.34,33.1,94.34s-51.86,9.38-94.34-33.1-33.09-94.33-33.09-94.33S158.74,67.5,201.21,110Z"/><path class="cls-5" d="M119.73,86a104.76,104.76,0,0,1,74.41,31.05,104.74,104.74,0,0,1,31,78.07c-1.11,0-2.33.07-3.65.07a104.8,104.8,0,0,1-74.41-31.05,104.74,104.74,0,0,1-31-78.07c1.11,0,2.33-.07,3.64-.07h0m0-10a79.72,79.72,0,0,0-12.84.88S97.5,128.74,140,171.21a114.57,114.57,0,0,0,81.49,34,79.79,79.79,0,0,0,12.85-.88s9.38-51.86-33.1-94.34a114.57,114.57,0,0,0-81.49-34Z"/></g></svg>