<svg xmlns="http://www.w3.org/2000/svg" xmlns:xlink="http://www.w3.org/1999/xlink" viewBox="0 0 512 512"><defs><style>.cls-1{fill:none;}.cls-2{fill:#fbc8bc;}.cls-3{fill:#049146;}.cls-4{fill:#f6ca12;}.cls-5{clip-path:url(#clip-path);}.cls-6{fill:#f59f1d;}.cls-7{fill:#fff;opacity:0.3;}.cls-8{fill:#010101;}</style><clipPath id="clip-path"><path class="cls-1" d="M374.5,330.13a205.65,205.65,0,0,1-2.11,29.55q-.81,5.79-2,11.42c-12,59.07-49.39,104.35-95.71,114.08a91,91,0,0,1-29.17,1.35c-30.95-3.59-58.49-22.93-78-51.95a171.42,171.42,0,0,1-22.1-47.84h0a196.8,196.8,0,0,1-7.1-37.92c-.56-6.12-.84-12.36-.84-18.68,0-1.94,0-3.88.09-5.8a202.66,202.66,0,0,1,5.33-41.28C158,219.34,202.93,173.13,256,173.13a91.47,91.47,0,0,1,28.44,4.55c44.35,14.48,78.87,62,87.79,121.78.73,4.81,1.28,9.71,1.66,14.67Q374.49,322,374.5,330.13Z"/></clipPath></defs><g id="BULINE"><circle class="cls-2" cx="256" cy="256" r="256"/></g><g id="Fruits"><polygon class="cls-3" points="296.57 206.13 346.48 107 306.48 127 306.48 67 276.57 116.13 256.57 26.13 236.57 116.13 206.48 67 216.48 127 176.57 116.13 216.57 206.13 296.57 206.13"/><path class="cls-4" d="M374.5,330.13a205.65,205.65,0,0,1-2.11,29.55q-.81,5.79-2,11.42c-12,59.07-49.39,104.35-95.71,114.08a91,91,0,0,1-29.17,1.35c-30.95-3.59-58.49-22.93-78-51.95a171.42,171.42,0,0,1-22.1-47.84h0a196.8,196.8,0,0,1-7.1-37.92c-.56-6.12-.84-12.36-.84-18.68,0-1.94,0-3.88.09-5.8a202.66,202.66,0,0,1,5.33-41.28C158,219.34,202.93,173.13,256,173.13a91.47,91.47,0,0,1,28.44,4.55c44.35,14.48,78.87,62,87.79,121.78.73,4.81,1.28,9.71,1.66,14.67Q374.49,322,374.5,330.13Z"/><g class="cls-5"><path class="cls-6" d="M124.15,409.2a5.93,5.93,0,0,0,5.58,8,5.87,5.87,0,0,0,2-.37l32.83,32.84-18.52,18.57a6,6,0,0,0,8.43,8.4L173,458.05l33.13,33.13-25.32,25.39a6,6,0,0,0,8.43,8.4l25.3-25.37,27.29,27.29-6.89,6.9a5.95,5.95,0,1,0,8.41,8.41l6.9-6.89L257,542a6,6,0,1,0,8.42-8.41l-6.74-6.74,33.44-33.45,19.64,19.64a6,6,0,1,0,8.41-8.42L300.53,485l32.91-32.92L347.32,466a6,6,0,0,0,8.42-8.41L341.86,443.7l36.2-36.2a6.35,6.35,0,0,0,.85-1.1c.1-.09.21-.16.31-.26a6,6,0,0,0,0-8.41l-31.59-31.59,28.57-28.65c.13,0,.26,0,.39,0a6,6,0,0,0,5-9.25,6,6,0,0,0-1.61-3,5.91,5.91,0,0,0-2.71-1.53L342,288.57l25.41-25.48a6,6,0,0,0-8.43-8.41l-25.4,25.48L301.38,248l36.74-36.75a6,6,0,0,0-8.42-8.41L293,239.53,265.63,212.2l28.95-28.91a6,6,0,1,0-8.41-8.42l-29,28.91L230.43,177a6,6,0,1,0-8.42,8.41l26.78,26.78-27.57,27.53-38.67-38.66a6,6,0,1,0-8.41,8.42l38.65,38.65-33.27,33.23-34.93-34.93a6,6,0,1,0-8.41,8.42l34.92,34.92-32.94,32.89-17.31-17.31a6,6,0,0,0-8.41,8.42l17.3,17.3-4.22,4.2a6,6,0,1,0,8.41,8.43l4.22-4.22,27.45,27.45-33.44,33.45-15.74-15.74a6,6,0,0,0-8.42,8.42Zm57.25,40.43,33.4-33.5,33.13,33.13-33.4,33.49Zm74.66-91.73-32.3-32.31L257,292.34l32.26,32.27ZM297.68,333l33.13,33.13-33.2,33.3-33.13-33.13Zm-50,33.31-32.87,33-32.36-32.36L215.34,334Zm8.42,8.42,33.12,33.12-32.86,33L223.21,407.7Zm-5.83,143.72L223,491.17l33.4-33.49L283.7,485Zm41.86-41.86-27.36-27.36,32.87-33L325,443.7ZM366.69,402l-33.25,33.25L306,407.86l33.2-33.29Zm0-71.9-27.51,27.6L306.09,324.6,333.6,297Zm-41.55-41.54-27.51,27.59-32.26-32.26L293,256.37Zm-68-68L284.55,248,257,275.51l-27.37-27.37Zm-36,35.94,27.37,27.37-33.24,33.26-27.4-27.41Zm-74.63,74.52,32.93-32.89,27.41,27.41L174,358.51ZM174,375.34l32.37,32.38L173,441.21l-32.42-32.42Z"/></g><path d="M325.81,415.52a5,5,0,0,0-6.92,1.42,126,126,0,0,1-24.46,27.65,5,5,0,1,0,6.38,7.7q3.48-2.9,6.78-6.07h0a.12.12,0,0,1,0-.05h0l.05-.05h0l.05-.05h0l0,0h0l0,0h0a.08.08,0,0,1,0,0s0,0,0,0l0,0h0l0,0a0,0,0,0,0,0,0l0,0,0,0,0,0,0,0,0,0h0l0,0,0,0,0,0a0,0,0,0,1,0,0l0,0h0a.08.08,0,0,1,0,0v0l0,0,0,0,0,0h0l0,0v0l0,0,0,0,0,0h0l.05,0h0l.1-.1,0,0,0,0,0,0,0,0,0,0,0,0,0,0,0,0,0,0,0,0,0,0,0,0,0,0,0,0,0,0,0,0,0,0,0,0,0,0,0,0,0,0,0,0,0,0,0,0,0,0,0,0,0,0h0l0,0,0,0,0,0s0,0,0,0l0,0h0l0,0,0,0,0,0v0l0,0h0l0,0h0l.05-.05.05-.05h0l0,0h0l.05-.05h0l.57-.58,0,0h0l0,0,.05-.05h0l.05,0h0l0-.05h0l.05,0h0l.05-.05,0,0h0l.05,0h0l0-.05h0a143.36,143.36,0,0,0,16-20.11A5,5,0,0,0,325.81,415.52Zm9.3-17.55a4.93,4.93,0,0,0-2.2-.52,5,5,0,0,0-4.49,2.8l-.21.42a5,5,0,1,0,9,4.43l.22-.45A5,5,0,0,0,335.11,398Zm15.19-56.18a5.34,5.34,0,0,0-.69-.05,5,5,0,0,0-4.95,4.32c-.05.39-.11.79-.17,1.18v.05c-.51,3.6-1.13,7.23-1.87,10.82a181.14,181.14,0,0,1-6.88,24.76,5,5,0,0,0,3,6.39,4.92,4.92,0,0,0,1.68.3,5,5,0,0,0,4.7-3.31,187.58,187.58,0,0,0,6-20.4c0-.14.07-.28.1-.42h0c0-.14.07-.28.1-.41h0s0-.05,0-.08h0c0-.11.05-.22.07-.33h0s0-.05,0-.08h0s0-.05,0-.08h0a2.21,2.21,0,0,1,.05-.25h0a.64.64,0,0,0,0-.07v0a.19.19,0,0,0,0-.07v0l.06-.23v0s0,0,0-.06a0,0,0,0,0,0,0,.13.13,0,0,0,0-.06,0,0,0,0,0,0,0s0,0,0-.07h0c0-.08,0-.15.05-.23a0,0,0,0,1,0,0,.13.13,0,0,1,0-.06,0,0,0,0,1,0,0,.13.13,0,0,1,0-.06,0,0,0,0,1,0,0c0-.07,0-.14,0-.21v0s0,0,0-.06v0s0,0,0-.06,0,0,0,0a.43.43,0,0,0,0-.05.06.06,0,0,0,0,0,.37.37,0,0,0,0-.09,233227539810.94,233227539810.94,0,0,1,0-.1,46645507962.1,46645507962.1,0,0,0,0-.1.07.07,0,0,0,0-.05.07.07,0,0,0,0-.05.06.06,0,0,0,0,0,.11.11,0,0,0,0-.05.29.29,0,0,0,0-.09.09.09,0,0,0,0-.05.06.06,0,0,0,0,0,.13.13,0,0,0,0-.06.06.06,0,0,0,0,0,.09.09,0,0,0,0-.05l0-.05v-.05a.29.29,0,0,0,0-.09,0,0,0,0,0,0,0s0,0,0-.06a58306884952.7,58306884952.7,0,0,0,0-.1.08.08,0,0,0,0,0s0,0,0-.06v0s0,0,0-.07v0a.29.29,0,0,0,0-.09.06.06,0,0,0,0,0,.13.13,0,0,0,0-.06.06.06,0,0,0,0,0,.13.13,0,0,0,0-.06.06.06,0,0,0,0,0,.64.64,0,0,0,0-.07v0a.29.29,0,0,0,0-.09v0s0-.05,0-.07,0,0,0,0,0,0,0-.06,0,0,0,0,0,0,0-.06a0,0,0,0,0,0,0s0-.07,0-.1q1.15-5.62,2-11.42s0,0,0-.07v0a0,0,0,0,0,0,0v0a.13.13,0,0,0,0-.06v-.09a.17.17,0,0,1,0-.07.22.22,0,0,1,0-.08l.06-.46h0a.17.17,0,0,0,0-.07.06.06,0,0,0,0,0v0l0-.19A5,5,0,0,0,350.3,341.79Z"/><path class="cls-7" d="M170.05,326.6a10.47,10.47,0,0,1-1.57-.12,9.94,9.94,0,0,1-8.25-11.36c5-31.75,17-60.72,34.65-83.77A144.88,144.88,0,0,1,212.62,212a9.92,9.92,0,0,1,13.31,14.71,125.59,125.59,0,0,0-15.29,16.69c-15.63,20.45-26.29,46.32-30.81,74.83A9.91,9.91,0,0,1,170.05,326.6Z"/></g><g id="Black_outlines_-_to_remove" data-name="Black outlines - to remove"><path class="cls-8" d="M373.89,314.13c-.38-5-.93-9.86-1.66-14.67-7.45-49.9-32.76-91.29-66.73-112L346,107l-40,20V67l-30,40L256.1,26.13,236,107,206,67l10,60-50-20,40.62,80.37c-30.24,18.38-53.62,53.13-63.7,95.68a202.66,202.66,0,0,0-5.33,41.28c-.06,1.92-.09,3.86-.09,5.8,0,6.32.28,12.56.84,18.68a196.8,196.8,0,0,0,7.1,37.92h0a171.42,171.42,0,0,0,22.1,47.84c19.51,29,47.05,48.36,78,51.95a91,91,0,0,0,29.17-1.35c46.32-9.73,83.7-55,95.71-114.08q1.15-5.62,2-11.42a205.65,205.65,0,0,0,2.11-29.55Q374.5,322,373.89,314.13Zm-187-188,25.42,10.16A9.8,9.8,0,0,0,216,137a10,10,0,0,0,9.86-11.64l-3.25-19.55L228,113a10,10,0,0,0,8,4,10.41,10.41,0,0,0,2-.2,10,10,0,0,0,7.71-7.39l10.35-41.63,10.24,41.61A10,10,0,0,0,274,116.8a10.51,10.51,0,0,0,2,.2,10,10,0,0,0,8-4l12-16v30a10,10,0,0,0,14.47,8.94l13-6.52-26.8,53.23a97.06,97.06,0,0,0-12.28-5A91.47,91.47,0,0,0,256,173.13a92.75,92.75,0,0,0-40.59,9.46ZM362.49,358.24v.05c-.51,3.59-1.13,7.23-1.87,10.81-5.59,27.48-16.95,52.07-32.86,71.13-15.63,18.71-34.69,30.87-55.11,35.16A81.23,81.23,0,0,1,256,477.13a79.83,79.83,0,0,1-9.31-.54c-27.17-3.15-52.34-20-70.86-47.6a161.07,161.07,0,0,1-20.73-44.84l-.06-.23a186.67,186.67,0,0,1-6.74-36c-.53-5.79-.8-11.77-.8-17.77,0-1.84,0-3.68.09-5.54a192.52,192.52,0,0,1,5.06-39.24c7-29.39,21-55.69,39.6-74a107.3,107.3,0,0,1,18.89-15,89.7,89.7,0,0,1,8.77-4.82A82.82,82.82,0,0,1,256,183.13a81.7,81.7,0,0,1,25.34,4.05,86.41,86.41,0,0,1,10.89,4.4,90.55,90.55,0,0,1,8.77,4.83c31.19,19.35,54.41,58.09,61.34,104.55.68,4.49,1.21,9.18,1.58,13.93.38,5.07.58,10.19.58,15.24A195,195,0,0,1,362.49,358.24Z"/></g></svg>